<?xml version="1.0" encoding="UTF-8"?>
<svg id="Pattern" xmlns="http://www.w3.org/2000/svg" xmlns:xlink="http://www.w3.org/1999/xlink" viewBox="0 0 1170 780">
  <defs>
    <style>
      .cls-1 {
        fill: #fff;
      }

      .cls-2 {
        fill: url(#New_Pattern);
      }

      .cls-3 {
        fill: none;
      }
    </style>
    <pattern id="New_Pattern" data-name="New Pattern" x="0" y="0" width="780" height="780" patternUnits="userSpaceOnUse" viewBox="0 0 780 780">
      <g>
        <rect class="cls-3" y="0" width="780" height="780"/>
        <g>
          <path class="cls-1" d="M973.56,843.87c1.23,14.01,13.22,24.99,27.29,24.99,15.11,0,27.4-12.29,27.4-27.4,0-6.42-2.28-12.66-6.41-17.58l-.59-.7,111.63-111.63v-152.36l.79-.17c4.95-1.07,8.54-5.52,8.54-10.58,0-5.97-4.86-10.83-10.83-10.83s-10.83,4.86-10.83,10.83c0,5.07,3.59,9.52,8.54,10.58l.79.17v151.11l-110.76,110.76-.7-.59c-4.93-4.13-11.17-6.41-17.58-6.41-14.08,0-26.06,10.98-27.29,24.99l-.08.91h-110.1l-144.09,144.09-.68-.44c-1.76-1.13-3.78-1.73-5.86-1.73-5.97,0-10.83,4.86-10.83,10.83s4.86,10.83,10.83,10.83,10.83-4.86,10.83-10.83c0-2.08-.6-4.11-1.73-5.86l-.44-.68,143.21-143.21h108.86l.08.91ZM1000.85,817.05c13.46,0,24.4,10.95,24.4,24.4s-10.95,24.4-24.4,24.4-24.4-10.95-24.4-24.4,10.95-24.4,24.4-24.4Z"/>
          <path class="cls-1" d="M732.11,772.32l-.7-.57c-1.92-1.56-4.35-2.43-6.83-2.43-5.97,0-10.83,4.86-10.83,10.83s4.86,10.83,10.83,10.83,10.83-4.86,10.83-10.83c0-1.67-.38-3.28-1.13-4.8l-.32-.64,83.98-83.98h90.22l133.65-133.65.68.44c1.75,1.13,3.78,1.73,5.86,1.73,5.97,0,10.83-4.86,10.83-10.83s-4.86-10.83-10.83-10.83-10.83,4.86-10.83,10.83c0,2.08.6,4.11,1.73,5.86l.44.68-.57.57-132.2,132.2h-90.22l-84.59,84.59Z"/>
        </g>
        <g>
          <path class="cls-1" d="M583.56,843.87c1.23,14.01,13.22,24.99,27.29,24.99,15.11,0,27.4-12.29,27.4-27.4,0-6.42-2.28-12.66-6.41-17.58l-.59-.7,111.63-111.63v-152.36l.79-.17c4.95-1.07,8.54-5.52,8.54-10.58,0-5.97-4.86-10.83-10.83-10.83s-10.83,4.86-10.83,10.83c0,5.07,3.59,9.52,8.54,10.58l.79.17v151.11l-110.76,110.76-.7-.59c-4.93-4.13-11.17-6.41-17.58-6.41-14.08,0-26.06,10.98-27.29,24.99l-.08.91h-110.1l-144.09,144.09-.68-.44c-1.76-1.13-3.78-1.73-5.86-1.73-5.97,0-10.83,4.86-10.83,10.83s4.86,10.83,10.83,10.83,10.83-4.86,10.83-10.83c0-2.08-.6-4.11-1.73-5.86l-.44-.68,143.21-143.21h108.86l.08.91ZM610.85,817.05c13.46,0,24.4,10.95,24.4,24.4s-10.95,24.4-24.4,24.4-24.4-10.95-24.4-24.4,10.95-24.4,24.4-24.4Z"/>
          <path class="cls-1" d="M342.11,772.32l-.7-.57c-1.92-1.56-4.35-2.43-6.83-2.43-5.97,0-10.83,4.86-10.83,10.83s4.86,10.83,10.83,10.83,10.83-4.86,10.83-10.83c0-1.67-.38-3.28-1.13-4.8l-.32-.64,83.98-83.98h90.22l133.65-133.65.68.44c1.75,1.13,3.78,1.73,5.86,1.73,5.97,0,10.83-4.86,10.83-10.83s-4.86-10.83-10.83-10.83-10.83,4.86-10.83,10.83c0,2.08.6,4.11,1.73,5.86l.44.68-.57.57-132.2,132.2h-90.22l-84.59,84.59Z"/>
          <rect class="cls-1" x="611.85" y="721.23" width="26.88" height="3"/>
          <path class="cls-1" d="M647.52,618.58l18.19-10.5-18.19-10.5v21ZM650.52,602.77l9.19,5.31-9.19,5.31v-10.61Z"/>
          <rect class="cls-1" x="611.85" y="712.69" width="26.88" height="3"/>
          <path class="cls-1" d="M863.45,662.14l.17.79c1.07,4.95,5.52,8.54,10.58,8.54,5.97,0,10.83-4.86,10.83-10.83s-4.86-10.83-10.83-10.83c-5.07,0-9.52,3.59-10.58,8.54l-.17.79h-81.95v-63.38l.79-.17c4.95-1.07,8.54-5.52,8.54-10.58,0-5.97-4.86-10.83-10.83-10.83s-10.83,4.86-10.83,10.83c0,5.07,3.59,9.52,8.54,10.58l.79.17v66.38h84.95Z"/>
          <rect class="cls-1" x="611.85" y="704.16" width="26.88" height="3"/>
          <path class="cls-1" d="M682.5,649.8c-5.97,0-10.83,4.86-10.83,10.83,0,5.07,3.59,9.52,8.54,10.58l.79.17v46.69l-23.93,23.94-.68-.44c-1.75-1.13-3.78-1.73-5.86-1.73-5.97,0-10.83,4.86-10.83,10.83s4.86,10.83,10.83,10.83,10.83-4.86,10.83-10.83c0-2.08-.6-4.11-1.73-5.86l-.44-.68,24.81-24.81v-47.94l.79-.17c4.95-1.07,8.54-5.52,8.54-10.58,0-5.97-4.86-10.83-10.83-10.83Z"/>
          <path class="cls-1" d="M614.67,777.52c-5.07,0-9.52,3.59-10.58,8.54l-.17.79h-20.78l-23.95-23.95h-137.59l-.17-.79c-1.07-4.95-5.52-8.54-10.58-8.54-5.97,0-10.83,4.86-10.83,10.83s4.86,10.83,10.83,10.83c5.07,0,9.52-3.59,10.58-8.54l.17-.79h136.35l23.95,23.95h22.03l.17.79c1.07,4.95,5.52,8.54,10.58,8.54,5.97,0,10.83-4.86,10.83-10.83s-4.86-10.83-10.83-10.83Z"/>
          <polygon class="cls-1" points="672.9 618.58 691.09 608.08 672.9 597.58 672.9 618.58"/>
          <polygon class="cls-1" points="716.47 608.08 698.29 597.58 698.29 618.58 716.47 608.08"/>
          <path class="cls-1" d="M627.06,663.37c2.25,1.58,4.89,2.42,7.63,2.42,7.35,0,13.33-5.98,13.33-13.33s-5.98-13.33-13.33-13.33-13.33,5.98-13.33,13.33c0,2.74.83,5.37,2.42,7.63l.48.69-61.4,61.4h-23.08l-.15-.83c-1.13-6.38-6.64-11-13.11-11-7.35,0-13.33,5.98-13.33,13.33s5.98,13.33,13.33,13.33c6.47,0,11.99-4.63,13.11-11.01l.15-.83h24.32l62.28-62.28.69.48ZM526.51,733.99c-5.7,0-10.33-4.63-10.33-10.33s4.63-10.33,10.33-10.33,10.33,4.63,10.33,10.33-4.63,10.33-10.33,10.33ZM634.68,642.12c5.7,0,10.33,4.63,10.33,10.33s-4.63,10.33-10.33,10.33-10.33-4.63-10.33-10.33,4.63-10.33,10.33-10.33Z"/>
          <polygon class="cls-1" points="431.7 702.14 413.25 720.59 426.36 720.59 444.82 702.14 431.7 702.14"/>
          <polygon class="cls-1" points="474.74 702.14 456.29 720.59 469.4 720.59 487.85 702.14 474.74 702.14"/>
          <polygon class="cls-1" points="496.26 702.14 477.81 720.59 490.92 720.59 509.37 702.14 496.26 702.14"/>
          <polygon class="cls-1" points="453.22 702.14 434.77 720.59 447.88 720.59 466.34 702.14 453.22 702.14"/>
        </g>
        <g>
          <path class="cls-1" d="M193.56,843.87c1.23,14.01,13.22,24.99,27.29,24.99,15.11,0,27.4-12.29,27.4-27.4,0-6.42-2.28-12.66-6.41-17.58l-.59-.7,111.63-111.63v-152.36l.79-.17c4.95-1.07,8.54-5.52,8.54-10.58,0-5.97-4.86-10.83-10.83-10.83s-10.83,4.86-10.83,10.83c0,5.07,3.59,9.52,8.54,10.58l.79.17v151.11l-110.76,110.76-.7-.59c-4.93-4.13-11.17-6.41-17.58-6.41-14.08,0-26.06,10.98-27.29,24.99l-.08.91h-110.1l-144.09,144.09-.68-.44c-1.76-1.13-3.78-1.73-5.86-1.73-5.97,0-10.83,4.86-10.83,10.83s4.86,10.83,10.83,10.83,10.83-4.86,10.83-10.83c0-2.08-.6-4.11-1.73-5.86l-.44-.68,143.21-143.21h108.86l.08.91ZM220.85,817.05c13.46,0,24.4,10.95,24.4,24.4s-10.95,24.4-24.4,24.4-24.4-10.95-24.4-24.4,10.95-24.4,24.4-24.4Z"/>
          <path class="cls-1" d="M-47.89,772.32l-.7-.57c-1.92-1.56-4.35-2.43-6.83-2.43-5.97,0-10.83,4.86-10.83,10.83s4.86,10.83,10.83,10.83,10.83-4.86,10.83-10.83c0-1.67-.38-3.28-1.13-4.8l-.32-.64,83.98-83.98h90.22l133.65-133.65.68.44c1.75,1.13,3.78,1.73,5.86,1.73,5.97,0,10.83-4.86,10.83-10.83s-4.86-10.83-10.83-10.83-10.83,4.86-10.83,10.83c0,2.08.6,4.11,1.73,5.86l.44.68-.57.57-132.2,132.2H36.7l-84.59,84.59Z"/>
          <rect class="cls-1" x="221.85" y="721.23" width="26.88" height="3"/>
          <path class="cls-1" d="M257.52,618.58l18.19-10.5-18.19-10.5v21ZM260.52,602.77l9.19,5.31-9.19,5.31v-10.61Z"/>
          <rect class="cls-1" x="221.85" y="712.69" width="26.88" height="3"/>
          <path class="cls-1" d="M473.45,662.14l.17.79c1.07,4.95,5.52,8.54,10.58,8.54,5.97,0,10.83-4.86,10.83-10.83s-4.86-10.83-10.83-10.83c-5.07,0-9.52,3.59-10.58,8.54l-.17.79h-81.95v-63.38l.79-.17c4.95-1.07,8.54-5.52,8.54-10.58,0-5.97-4.86-10.83-10.83-10.83s-10.83,4.86-10.83,10.83c0,5.07,3.59,9.52,8.54,10.58l.79.17v66.38h84.95Z"/>
          <rect class="cls-1" x="221.85" y="704.16" width="26.88" height="3"/>
          <path class="cls-1" d="M292.5,649.8c-5.97,0-10.83,4.86-10.83,10.83,0,5.07,3.59,9.52,8.54,10.58l.79.17v46.69l-23.93,23.94-.68-.44c-1.75-1.13-3.78-1.73-5.86-1.73-5.97,0-10.83,4.86-10.83,10.83s4.86,10.83,10.83,10.83,10.83-4.86,10.83-10.83c0-2.08-.6-4.11-1.73-5.86l-.44-.68,24.81-24.81v-47.94l.79-.17c4.95-1.07,8.54-5.52,8.54-10.58,0-5.97-4.86-10.83-10.83-10.83Z"/>
          <path class="cls-1" d="M224.67,777.52c-5.07,0-9.52,3.59-10.58,8.54l-.17.79h-20.78l-23.95-23.95H31.59l-.17-.79c-1.07-4.95-5.52-8.54-10.58-8.54-5.97,0-10.83,4.86-10.83,10.83s4.86,10.83,10.83,10.83c5.07,0,9.52-3.59,10.58-8.54l.17-.79h136.35l23.95,23.95h22.03l.17.79c1.07,4.95,5.52,8.54,10.58,8.54,5.97,0,10.83-4.86,10.83-10.83s-4.86-10.83-10.83-10.83Z"/>
          <polygon class="cls-1" points="282.9 618.58 301.09 608.08 282.9 597.58 282.9 618.58"/>
          <polygon class="cls-1" points="326.47 608.08 308.29 597.58 308.29 618.58 326.47 608.08"/>
          <path class="cls-1" d="M237.06,663.37c2.25,1.58,4.89,2.42,7.63,2.42,7.35,0,13.33-5.98,13.33-13.33s-5.98-13.33-13.33-13.33-13.33,5.98-13.33,13.33c0,2.74.83,5.37,2.42,7.63l.48.69-61.4,61.4h-23.08l-.15-.83c-1.13-6.38-6.64-11-13.11-11-7.35,0-13.33,5.98-13.33,13.33s5.98,13.33,13.33,13.33c6.47,0,11.99-4.63,13.11-11.01l.15-.83h24.32l62.28-62.28.69.48ZM136.51,733.99c-5.7,0-10.33-4.63-10.33-10.33s4.63-10.33,10.33-10.33,10.33,4.63,10.33,10.33-4.63,10.33-10.33,10.33ZM244.68,642.12c5.7,0,10.33,4.63,10.33,10.33s-4.63,10.33-10.33,10.33-10.33-4.63-10.33-10.33,4.63-10.33,10.33-10.33Z"/>
          <polygon class="cls-1" points="41.7 702.14 23.25 720.59 36.36 720.59 54.82 702.14 41.7 702.14"/>
          <polygon class="cls-1" points="84.74 702.14 66.29 720.59 79.4 720.59 97.85 702.14 84.74 702.14"/>
          <polygon class="cls-1" points="106.26 702.14 87.81 720.59 100.92 720.59 119.37 702.14 106.26 702.14"/>
          <polygon class="cls-1" points="63.22 702.14 44.77 720.59 57.88 720.59 76.34 702.14 63.22 702.14"/>
        </g>
        <path class="cls-1" d="M83.45,662.14l.17.79c1.07,4.95,5.52,8.54,10.58,8.54,5.97,0,10.83-4.86,10.83-10.83s-4.86-10.83-10.83-10.83c-5.07,0-9.52,3.59-10.58,8.54l-.17.79H1.5v-63.38l.79-.17c4.95-1.07,8.54-5.52,8.54-10.58,0-5.97-4.86-10.83-10.83-10.83s-10.83,4.86-10.83,10.83c0,5.07,3.59,9.52,8.54,10.58l.79.17v66.38h84.95Z"/>
        <g>
          <path class="cls-1" d="M778.56,453.87c1.23,14.01,13.22,24.99,27.29,24.99,15.11,0,27.4-12.29,27.4-27.4,0-6.42-2.28-12.66-6.41-17.58l-.59-.7,111.63-111.63v-152.36l.79-.17c4.95-1.07,8.54-5.52,8.54-10.58,0-5.97-4.86-10.83-10.83-10.83s-10.83,4.86-10.83,10.83c0,5.07,3.59,9.52,8.54,10.58l.79.17v151.11l-110.76,110.76-.7-.59c-4.93-4.13-11.17-6.41-17.58-6.41-14.08,0-26.06,10.98-27.29,24.99l-.08.91h-110.1l-144.09,144.09-.68-.44c-1.76-1.13-3.78-1.73-5.86-1.73-5.97,0-10.83,4.86-10.83,10.83s4.86,10.83,10.83,10.83,10.83-4.86,10.83-10.83c0-2.08-.6-4.11-1.73-5.86l-.44-.68,143.21-143.21h108.86l.08.91ZM805.85,427.05c13.46,0,24.4,10.95,24.4,24.4s-10.95,24.4-24.4,24.4-24.4-10.95-24.4-24.4,10.95-24.4,24.4-24.4Z"/>
          <path class="cls-1" d="M701.13,507.81v-7h2.02c-1.56-5.76-6.79-9.83-12.85-9.83-7.35,0-13.33,5.98-13.33,13.33s5.98,13.33,13.33,13.33c6.07,0,11.29-4.07,12.85-9.83h-2.02ZM690.3,514.64c-5.7,0-10.33-4.63-10.33-10.33s4.63-10.33,10.33-10.33,10.33,4.63,10.33,10.33-4.63,10.33-10.33,10.33Z"/>
          <path class="cls-1" d="M537.11,382.32l-.7-.57c-1.92-1.56-4.35-2.43-6.83-2.43-5.97,0-10.83,4.86-10.83,10.83s4.86,10.83,10.83,10.83,10.83-4.86,10.83-10.83c0-1.67-.38-3.28-1.13-4.8l-.32-.64,83.98-83.98h90.22l133.65-133.65.68.44c1.75,1.13,3.78,1.73,5.86,1.73,5.97,0,10.83-4.86,10.83-10.83s-4.86-10.83-10.83-10.83-10.83,4.86-10.83,10.83c0,2.08.6,4.11,1.73,5.86l.44.68-.57.57-132.2,132.2h-90.22l-84.59,84.59Z"/>
          <path class="cls-1" d="M778.22,537.07c-2.11,0-3.84,1.72-3.84,3.84s1.72,3.83,3.84,3.83,3.84-1.72,3.84-3.83-1.72-3.84-3.84-3.84Z"/>
          <path class="cls-1" d="M778.22,561.15c2.11,0,3.84-1.72,3.84-3.83s-1.72-3.84-3.84-3.84-3.84,1.72-3.84,3.84,1.72,3.83,3.84,3.83Z"/>
          <circle class="cls-1" cx="778.22" cy="524.51" r="3.84"/>
          <path class="cls-1" d="M827.77,505.81l65.07-65.07h77.69c-.05-.51-.08-1.01-.08-1.5s.03-.99.08-1.5h-78.93l-65.07,65.07h-120.98c.05.51.08,1.01.08,1.5s-.03.99-.08,1.5h122.22Z"/>
          <path class="cls-1" d="M809.67,387.52c-5.07,0-9.52,3.59-10.58,8.54l-.17.79h-20.78l-23.95-23.95h-137.59l-.17-.79c-1.07-4.95-5.52-8.54-10.58-8.54-5.97,0-10.83,4.86-10.83,10.83s4.86,10.83,10.83,10.83c5.07,0,9.52-3.59,10.58-8.54l.17-.79h136.35l23.95,23.95h22.03l.17.79c1.07,4.95,5.52,8.54,10.58,8.54,5.97,0,10.83-4.86,10.83-10.83s-4.86-10.83-10.83-10.83Z"/>
          <path class="cls-1" d="M822.06,273.37c2.25,1.58,4.89,2.42,7.63,2.42,7.35,0,13.33-5.98,13.33-13.33s-5.98-13.33-13.33-13.33-13.33,5.98-13.33,13.33c0,2.74.83,5.37,2.42,7.63l.48.69-61.4,61.4h-23.08l-.15-.83c-1.13-6.38-6.64-11-13.11-11-7.35,0-13.33,5.98-13.33,13.33s5.98,13.33,13.33,13.33c6.47,0,11.99-4.63,13.11-11.01l.15-.83h24.32l62.28-62.28.69.48ZM721.51,343.99c-5.7,0-10.33-4.63-10.33-10.33s4.63-10.33,10.33-10.33,10.33,4.63,10.33,10.33-4.63,10.33-10.33,10.33ZM829.68,252.12c5.7,0,10.33,4.63,10.33,10.33s-4.63,10.33-10.33,10.33-10.33-4.63-10.33-10.33,4.63-10.33,10.33-10.33Z"/>
          <polygon class="cls-1" points="626.7 312.14 608.25 330.59 621.36 330.59 639.82 312.14 626.7 312.14"/>
          <polygon class="cls-1" points="669.74 312.14 651.29 330.59 664.4 330.59 682.85 312.14 669.74 312.14"/>
          <path class="cls-1" d="M642.23,421.01c5.07,0,9.52-3.59,10.58-8.54l.17-.79h83.29l.17.79c1.07,4.95,5.52,8.54,10.58,8.54,5.97,0,10.83-4.86,10.83-10.83s-4.86-10.83-10.83-10.83c-5.07,0-9.52,3.59-10.58,8.54l-.17.79h-83.29l-.17-.79c-1.07-4.95-5.52-8.54-10.58-8.54-5.97,0-10.83,4.86-10.83,10.83s4.86,10.83,10.83,10.83Z"/>
          <polygon class="cls-1" points="691.26 312.14 672.81 330.59 685.92 330.59 704.37 312.14 691.26 312.14"/>
          <polygon class="cls-1" points="648.22 312.14 629.77 330.59 642.88 330.59 661.34 312.14 648.22 312.14"/>
        </g>
        <g>
          <path class="cls-1" d="M417.78,561.15c2.11,0,3.83-1.72,3.83-3.83s-1.72-3.84-3.83-3.84-3.84,1.72-3.84,3.84,1.72,3.83,3.84,3.83Z"/>
          <path class="cls-1" d="M388.56,453.87c1.23,14.01,13.22,24.99,27.29,24.99,15.11,0,27.4-12.29,27.4-27.4,0-6.42-2.28-12.66-6.41-17.58l-.59-.7,111.63-111.63v-152.36l.79-.17c4.95-1.07,8.54-5.52,8.54-10.58,0-5.97-4.86-10.83-10.83-10.83s-10.83,4.86-10.83,10.83c0,5.07,3.59,9.52,8.54,10.58l.79.17v151.11l-110.76,110.76-.7-.59c-4.93-4.13-11.17-6.41-17.58-6.41-14.08,0-26.06,10.98-27.29,24.99l-.08.91h-110.1l-144.09,144.09-.68-.44c-1.76-1.13-3.78-1.73-5.86-1.73-5.97,0-10.83,4.86-10.83,10.83s4.86,10.83,10.83,10.83,10.83-4.86,10.83-10.83c0-2.08-.6-4.11-1.73-5.86l-.44-.68,143.21-143.21h108.86l.08.91ZM415.85,427.05c13.46,0,24.4,10.95,24.4,24.4s-10.95,24.4-24.4,24.4-24.4-10.95-24.4-24.4,10.95-24.4,24.4-24.4Z"/>
          <path class="cls-1" d="M311.13,507.81v-7h2.02c-1.56-5.76-6.79-9.83-12.85-9.83-7.35,0-13.33,5.98-13.33,13.33s5.98,13.33,13.33,13.33c6.07,0,11.29-4.07,12.85-9.83h-2.02ZM300.3,514.64c-5.7,0-10.33-4.63-10.33-10.33s4.63-10.33,10.33-10.33,10.33,4.63,10.33,10.33-4.63,10.33-10.33,10.33Z"/>
          <path class="cls-1" d="M417.78,520.67c-2.12,0-3.84,1.72-3.84,3.84s1.72,3.84,3.84,3.84,3.83-1.72,3.83-3.84-1.72-3.84-3.83-3.84Z"/>
          <path class="cls-1" d="M417.78,544.75c2.11,0,3.83-1.72,3.83-3.83s-1.72-3.84-3.83-3.84-3.84,1.72-3.84,3.84,1.72,3.83,3.84,3.83Z"/>
          <path class="cls-1" d="M147.11,382.32l-.7-.57c-1.92-1.56-4.35-2.43-6.83-2.43-5.97,0-10.83,4.86-10.83,10.83s4.86,10.83,10.83,10.83,10.83-4.86,10.83-10.83c0-1.67-.38-3.28-1.13-4.8l-.32-.64,83.98-83.98h90.22l133.65-133.65.68.44c1.75,1.13,3.78,1.73,5.86,1.73,5.97,0,10.83-4.86,10.83-10.83s-4.86-10.83-10.83-10.83-10.83,4.86-10.83,10.83c0,2.08.6,4.11,1.73,5.86l.44.68-.57.57-132.2,132.2h-90.22l-84.59,84.59Z"/>
          <rect class="cls-1" x="416.85" y="331.23" width="26.88" height="3"/>
          <path class="cls-1" d="M452.52,228.58l18.19-10.5-18.19-10.5v21ZM455.52,212.77l9.19,5.31-9.19,5.31v-10.61Z"/>
          <path class="cls-1" d="M388.22,537.07c-2.11,0-3.84,1.72-3.84,3.84s1.72,3.83,3.84,3.83,3.84-1.72,3.84-3.83-1.72-3.84-3.84-3.84Z"/>
          <path class="cls-1" d="M403,537.07c-2.12,0-3.84,1.72-3.84,3.84s1.72,3.83,3.84,3.83,3.84-1.72,3.84-3.83-1.72-3.84-3.84-3.84Z"/>
          <circle class="cls-1" cx="403" cy="524.51" r="3.84"/>
          <path class="cls-1" d="M388.22,561.15c2.11,0,3.84-1.72,3.84-3.83s-1.72-3.84-3.84-3.84-3.84,1.72-3.84,3.84,1.72,3.83,3.84,3.83Z"/>
          <path class="cls-1" d="M403,561.15c2.12,0,3.84-1.72,3.84-3.83s-1.72-3.84-3.84-3.84-3.84,1.72-3.84,3.84,1.72,3.83,3.84,3.83Z"/>
          <path class="cls-1" d="M576.38,498.47c5.97,0,10.83-4.86,10.83-10.83s-4.86-10.83-10.83-10.83-10.83,4.86-10.83,10.83c0,2.08.6,4.11,1.73,5.86l.44.68-68.21,68.21-.68-.44c-1.76-1.13-3.78-1.73-5.86-1.73-5.97,0-10.83,4.86-10.83,10.83s4.86,10.83,10.83,10.83,10.83-4.86,10.83-10.83c0-2.08-.6-4.11-1.73-5.86l-.44-.68,68.21-68.21.68.44c1.76,1.13,3.78,1.73,5.86,1.73Z"/>
          <rect class="cls-1" x="416.85" y="322.69" width="26.88" height="3"/>
          <path class="cls-1" d="M668.45,272.14l.17.79c1.07,4.95,5.52,8.54,10.58,8.54,5.97,0,10.83-4.86,10.83-10.83s-4.86-10.83-10.83-10.83c-5.07,0-9.52,3.59-10.58,8.54l-.17.79h-81.95v-63.38l.79-.17c4.95-1.07,8.54-5.52,8.54-10.58,0-5.97-4.86-10.83-10.83-10.83s-10.83,4.86-10.83,10.83c0,5.07,3.59,9.52,8.54,10.58l.79.17v66.38h84.95Z"/>
          <circle class="cls-1" cx="388.22" cy="524.51" r="3.84"/>
          <rect class="cls-1" x="416.85" y="314.16" width="26.88" height="3"/>
          <path class="cls-1" d="M437.77,505.81l65.07-65.07h77.69c-.05-.51-.08-1.01-.08-1.5s.03-.99.08-1.5h-78.93l-65.07,65.07h-120.98c.05.51.08,1.01.08,1.5s-.03.99-.08,1.5h122.22Z"/>
          <path class="cls-1" d="M487.5,259.8c-5.97,0-10.83,4.86-10.83,10.83,0,5.07,3.59,9.52,8.54,10.58l.79.17v46.69l-23.93,23.94-.68-.44c-1.75-1.13-3.78-1.73-5.86-1.73-5.97,0-10.83,4.86-10.83,10.83s4.86,10.83,10.83,10.83,10.83-4.86,10.83-10.83c0-2.08-.6-4.11-1.73-5.86l-.44-.68,24.81-24.81v-47.94l.79-.17c4.95-1.07,8.54-5.52,8.54-10.58,0-5.97-4.86-10.83-10.83-10.83Z"/>
          <path class="cls-1" d="M419.67,387.52c-5.07,0-9.52,3.59-10.58,8.54l-.17.79h-20.78l-23.95-23.95h-137.59l-.17-.79c-1.07-4.95-5.52-8.54-10.58-8.54-5.97,0-10.83,4.86-10.83,10.83s4.86,10.83,10.83,10.83c5.07,0,9.52-3.59,10.58-8.54l.17-.79h136.35l23.95,23.95h22.03l.17.79c1.07,4.95,5.52,8.54,10.58,8.54,5.97,0,10.83-4.86,10.83-10.83s-4.86-10.83-10.83-10.83Z"/>
          <path class="cls-1" d="M501.61,505.57l.68.44c1.76,1.13,3.78,1.73,5.86,1.73,5.97,0,10.83-4.86,10.83-10.83s-4.86-10.83-10.83-10.83-10.83,4.86-10.83,10.83c0,2.08.6,4.11,1.73,5.86l.44.68-57.29,57.29v28.63h-23.63v50.25h50.25v-50.25h-23.63v-27.39l56.41-56.42ZM465.82,592.37v44.25h-44.25v-44.25h44.25Z"/>
          <polygon class="cls-1" points="477.9 228.58 496.09 218.08 477.9 207.58 477.9 228.58"/>
          <polygon class="cls-1" points="521.47 218.08 503.29 207.58 503.29 228.58 521.47 218.08"/>
          <path class="cls-1" d="M432.06,273.37c2.25,1.58,4.89,2.42,7.63,2.42,7.35,0,13.33-5.98,13.33-13.33s-5.98-13.33-13.33-13.33-13.33,5.98-13.33,13.33c0,2.74.83,5.37,2.42,7.63l.48.69-61.4,61.4h-23.08l-.15-.83c-1.13-6.38-6.64-11-13.11-11-7.35,0-13.33,5.98-13.33,13.33s5.98,13.33,13.33,13.33c6.47,0,11.99-4.63,13.11-11.01l.15-.83h24.32l62.28-62.28.69.48ZM331.51,343.99c-5.7,0-10.33-4.63-10.33-10.33s4.63-10.33,10.33-10.33,10.33,4.63,10.33,10.33-4.63,10.33-10.33,10.33ZM439.68,252.12c5.7,0,10.33,4.63,10.33,10.33s-4.63,10.33-10.33,10.33-10.33-4.63-10.33-10.33,4.63-10.33,10.33-10.33Z"/>
          <path class="cls-1" d="M609.12,439.23c0-7.35-5.98-13.33-13.33-13.33-6.07,0-11.29,4.07-12.85,9.83h3.06v.19c1.38-4.08,5.25-7.02,9.79-7.02,5.7,0,10.33,4.63,10.33,10.33s-4.63,10.33-10.33,10.33c-4.54,0-8.41-2.94-9.79-7.02v.19h-3.06c1.56,5.76,6.79,9.83,12.85,9.83,7.35,0,13.33-5.98,13.33-13.33Z"/>
          <polygon class="cls-1" points="236.7 312.14 218.25 330.59 231.36 330.59 249.82 312.14 236.7 312.14"/>
          <polygon class="cls-1" points="279.74 312.14 261.29 330.59 274.4 330.59 292.85 312.14 279.74 312.14"/>
          <path class="cls-1" d="M252.23,421.01c5.07,0,9.52-3.59,10.58-8.54l.17-.79h83.29l.17.79c1.07,4.95,5.52,8.54,10.58,8.54,5.97,0,10.83-4.86,10.83-10.83s-4.86-10.83-10.83-10.83c-5.07,0-9.52,3.59-10.58,8.54l-.17.79h-83.29l-.17-.79c-1.07-4.95-5.52-8.54-10.58-8.54-5.97,0-10.83,4.86-10.83,10.83s4.86,10.83,10.83,10.83Z"/>
          <polygon class="cls-1" points="301.26 312.14 282.81 330.59 295.92 330.59 314.37 312.14 301.26 312.14"/>
          <polygon class="cls-1" points="258.22 312.14 239.77 330.59 252.88 330.59 271.34 312.14 258.22 312.14"/>
        </g>
        <g>
          <path class="cls-1" d="M27.78,561.15c2.11,0,3.83-1.72,3.83-3.83s-1.72-3.84-3.83-3.84-3.84,1.72-3.84,3.84,1.72,3.83,3.84,3.83Z"/>
          <path class="cls-1" d="M-1.44,453.87c1.23,14.01,13.22,24.99,27.29,24.99,15.11,0,27.4-12.29,27.4-27.4,0-6.42-2.28-12.66-6.41-17.58l-.59-.7,111.63-111.63v-152.36l.79-.17c4.95-1.07,8.54-5.52,8.54-10.58,0-5.97-4.86-10.83-10.83-10.83s-10.83,4.86-10.83,10.83c0,5.07,3.59,9.52,8.54,10.58l.79.17v151.11l-110.76,110.76-.7-.59c-4.93-4.13-11.17-6.41-17.58-6.41-14.08,0-26.06,10.98-27.29,24.99l-.08.91h-110.1l-144.09,144.09-.68-.44c-1.76-1.13-3.78-1.73-5.86-1.73-5.97,0-10.83,4.86-10.83,10.83s4.86,10.83,10.83,10.83,10.83-4.86,10.83-10.83c0-2.08-.6-4.11-1.73-5.86l-.44-.68,143.21-143.21H-1.52l.08.91ZM25.85,427.05c13.46,0,24.4,10.95,24.4,24.4s-10.95,24.4-24.4,24.4-24.4-10.95-24.4-24.4,10.95-24.4,24.4-24.4Z"/>
          <path class="cls-1" d="M27.78,520.67c-2.12,0-3.84,1.72-3.84,3.84s1.72,3.84,3.84,3.84,3.83-1.72,3.83-3.84-1.72-3.84-3.83-3.84Z"/>
          <path class="cls-1" d="M27.78,544.75c2.11,0,3.83-1.72,3.83-3.83s-1.72-3.84-3.83-3.84-3.84,1.72-3.84,3.84,1.72,3.83,3.84,3.83Z"/>
          <path class="cls-1" d="M-242.89,382.32l-.7-.57c-1.92-1.56-4.35-2.43-6.83-2.43-5.97,0-10.83,4.86-10.83,10.83s4.86,10.83,10.83,10.83,10.83-4.86,10.83-10.83c0-1.67-.38-3.28-1.13-4.8l-.32-.64,83.98-83.98h90.22L66.82,167.09l.68.44c1.75,1.13,3.78,1.73,5.86,1.73,5.97,0,10.83-4.86,10.83-10.83s-4.86-10.83-10.83-10.83-10.83,4.86-10.83,10.83c0,2.08.6,4.11,1.73,5.86l.44.68-.57.57-132.2,132.2h-90.22l-84.59,84.59Z"/>
          <rect class="cls-1" x="26.85" y="331.23" width="26.88" height="3"/>
          <path class="cls-1" d="M62.52,228.58l18.19-10.5-18.19-10.5v21ZM65.52,212.77l9.19,5.31-9.19,5.31v-10.61Z"/>
          <path class="cls-1" d="M-1.78,537.07c-2.11,0-3.84,1.72-3.84,3.84s1.72,3.83,3.84,3.83,3.84-1.72,3.84-3.83-1.72-3.84-3.84-3.84Z"/>
          <path class="cls-1" d="M13,537.07c-2.12,0-3.84,1.72-3.84,3.84s1.72,3.83,3.84,3.83,3.84-1.72,3.84-3.83-1.72-3.84-3.84-3.84Z"/>
          <circle class="cls-1" cx="13" cy="524.51" r="3.84"/>
          <path class="cls-1" d="M-1.78,561.15c2.11,0,3.84-1.72,3.84-3.83s-1.72-3.84-3.84-3.84-3.84,1.72-3.84,3.84,1.72,3.83,3.84,3.83Z"/>
          <path class="cls-1" d="M13,561.15c2.12,0,3.84-1.72,3.84-3.83s-1.72-3.84-3.84-3.84-3.84,1.72-3.84,3.84,1.72,3.83,3.84,3.83Z"/>
          <path class="cls-1" d="M186.38,498.47c5.97,0,10.83-4.86,10.83-10.83s-4.86-10.83-10.83-10.83-10.83,4.86-10.83,10.83c0,2.08.6,4.11,1.73,5.86l.44.68-68.21,68.21-.68-.44c-1.76-1.13-3.78-1.73-5.86-1.73-5.97,0-10.83,4.86-10.83,10.83s4.86,10.83,10.83,10.83,10.83-4.86,10.83-10.83c0-2.08-.6-4.11-1.73-5.86l-.44-.68,68.21-68.21.68.44c1.76,1.13,3.78,1.73,5.86,1.73Z"/>
          <rect class="cls-1" x="26.85" y="322.69" width="26.88" height="3"/>
          <path class="cls-1" d="M278.45,272.14l.17.79c1.07,4.95,5.52,8.54,10.58,8.54,5.97,0,10.83-4.86,10.83-10.83s-4.86-10.83-10.83-10.83c-5.07,0-9.52,3.59-10.58,8.54l-.17.79h-81.95v-63.38l.79-.17c4.95-1.07,8.54-5.52,8.54-10.58,0-5.97-4.86-10.83-10.83-10.83s-10.83,4.86-10.83,10.83c0,5.07,3.59,9.52,8.54,10.58l.79.17v66.38h84.95Z"/>
          <circle class="cls-1" cx="-1.78" cy="524.51" r="3.84"/>
          <rect class="cls-1" x="26.85" y="314.16" width="26.88" height="3"/>
          <path class="cls-1" d="M47.77,505.81l65.07-65.07h77.69c-.05-.51-.08-1.01-.08-1.5s.03-.99.08-1.5h-78.93l-65.07,65.07h-120.98c.05.51.08,1.01.08,1.5s-.03.99-.08,1.5H47.77Z"/>
          <path class="cls-1" d="M97.5,259.8c-5.97,0-10.83,4.86-10.83,10.83,0,5.07,3.59,9.52,8.54,10.58l.79.17v46.69l-23.93,23.94-.68-.44c-1.75-1.13-3.78-1.73-5.86-1.73-5.97,0-10.83,4.86-10.83,10.83s4.86,10.83,10.83,10.83,10.83-4.86,10.83-10.83c0-2.08-.6-4.11-1.73-5.86l-.44-.68,24.81-24.81v-47.94l.79-.17c4.95-1.07,8.54-5.52,8.54-10.58,0-5.97-4.86-10.83-10.83-10.83Z"/>
          <path class="cls-1" d="M29.67,387.52c-5.07,0-9.52,3.59-10.58,8.54l-.17.79H-1.87l-23.95-23.95h-137.59l-.17-.79c-1.07-4.95-5.52-8.54-10.58-8.54-5.97,0-10.83,4.86-10.83,10.83s4.86,10.83,10.83,10.83c5.07,0,9.52-3.59,10.58-8.54l.17-.79H-27.06l23.95,23.95h22.03l.17.79c1.07,4.95,5.52,8.54,10.58,8.54,5.97,0,10.83-4.86,10.83-10.83s-4.86-10.83-10.83-10.83Z"/>
          <path class="cls-1" d="M111.61,505.57l.68.44c1.76,1.13,3.78,1.73,5.86,1.73,5.97,0,10.83-4.86,10.83-10.83s-4.86-10.83-10.83-10.83-10.83,4.86-10.83,10.83c0,2.08.6,4.11,1.73,5.86l.44.68-57.29,57.29v28.63h-23.63v50.25h50.25v-50.25h-23.63v-27.39l56.41-56.42ZM75.82,592.37v44.25H31.57v-44.25h44.25Z"/>
          <polygon class="cls-1" points="87.9 228.58 106.09 218.08 87.9 207.58 87.9 228.58"/>
          <polygon class="cls-1" points="131.47 218.08 113.29 207.58 113.29 228.58 131.47 218.08"/>
          <path class="cls-1" d="M42.06,273.37c2.25,1.58,4.89,2.42,7.63,2.42,7.35,0,13.33-5.98,13.33-13.33s-5.98-13.33-13.33-13.33-13.33,5.98-13.33,13.33c0,2.74.83,5.37,2.42,7.63l.48.69-61.4,61.4h-23.08l-.15-.83c-1.13-6.38-6.64-11-13.11-11-7.35,0-13.33,5.98-13.33,13.33s5.98,13.33,13.33,13.33c6.47,0,11.99-4.63,13.11-11.01l.15-.83h24.32l62.28-62.28.69.48ZM-58.49,343.99c-5.7,0-10.33-4.63-10.33-10.33s4.63-10.33,10.33-10.33,10.33,4.63,10.33,10.33-4.63,10.33-10.33,10.33ZM49.68,252.12c5.7,0,10.33,4.63,10.33,10.33s-4.63,10.33-10.33,10.33-10.33-4.63-10.33-10.33,4.63-10.33,10.33-10.33Z"/>
          <path class="cls-1" d="M219.12,439.23c0-7.35-5.98-13.33-13.33-13.33-6.07,0-11.29,4.07-12.85,9.83h3.06v.19c1.38-4.08,5.25-7.02,9.79-7.02,5.7,0,10.33,4.63,10.33,10.33s-4.63,10.33-10.33,10.33c-4.54,0-8.41-2.94-9.79-7.02v.19h-3.06c1.56,5.76,6.79,9.83,12.85,9.83,7.35,0,13.33-5.98,13.33-13.33Z"/>
        </g>
        <g>
          <path class="cls-1" d="M973.56,63.87c1.23,14.01,13.22,24.99,27.29,24.99,15.11,0,27.4-12.29,27.4-27.4,0-6.42-2.28-12.66-6.41-17.58l-.59-.7,111.63-111.63v-152.36l.79-.17c4.95-1.07,8.54-5.52,8.54-10.58,0-5.97-4.86-10.83-10.83-10.83s-10.83,4.86-10.83,10.83c0,5.07,3.59,9.52,8.54,10.58l.79.17V-69.71l-110.76,110.76-.7-.59c-4.93-4.13-11.17-6.41-17.58-6.41-14.08,0-26.06,10.98-27.29,24.99l-.08.91h-110.1l-144.09,144.09-.68-.44c-1.76-1.13-3.78-1.73-5.86-1.73-5.97,0-10.83,4.86-10.83,10.83s4.86,10.83,10.83,10.83,10.83-4.86,10.83-10.83c0-2.08-.6-4.11-1.73-5.86l-.44-.68,143.21-143.21h108.86l.08.91ZM1000.85,37.05c13.46,0,24.4,10.95,24.4,24.4s-10.95,24.4-24.4,24.4-24.4-10.95-24.4-24.4,10.95-24.4,24.4-24.4Z"/>
          <path class="cls-1" d="M732.11-7.68l-.7-.57c-1.92-1.56-4.35-2.43-6.83-2.43-5.97,0-10.83,4.86-10.83,10.83s4.86,10.83,10.83,10.83,10.83-4.86,10.83-10.83c0-1.67-.38-3.28-1.13-4.8l-.32-.64,83.98-83.98h90.22l133.65-133.65.68.44c1.75,1.13,3.78,1.73,5.86,1.73,5.97,0,10.83-4.86,10.83-10.83s-4.86-10.83-10.83-10.83-10.83,4.86-10.83,10.83c0,2.08.6,4.11,1.73,5.86l.44.68-.57.57-132.2,132.2h-90.22L732.11-7.68Z"/>
        </g>
        <g>
          <path class="cls-1" d="M612.78,171.15c2.11,0,3.83-1.72,3.83-3.83s-1.72-3.84-3.83-3.84-3.84,1.72-3.84,3.84,1.72,3.83,3.84,3.83Z"/>
          <path class="cls-1" d="M583.56,63.87c1.23,14.01,13.22,24.99,27.29,24.99,15.11,0,27.4-12.29,27.4-27.4,0-6.42-2.28-12.66-6.41-17.58l-.59-.7,111.63-111.63v-152.36l.79-.17c4.95-1.07,8.54-5.52,8.54-10.58,0-5.97-4.86-10.83-10.83-10.83s-10.83,4.86-10.83,10.83c0,5.07,3.59,9.52,8.54,10.58l.79.17V-69.71l-110.76,110.76-.7-.59c-4.93-4.13-11.17-6.41-17.58-6.41-14.08,0-26.06,10.98-27.29,24.99l-.08.91h-110.1l-144.09,144.09-.68-.44c-1.76-1.13-3.78-1.73-5.86-1.73-5.97,0-10.83,4.86-10.83,10.83s4.86,10.83,10.83,10.83,10.83-4.86,10.83-10.83c0-2.08-.6-4.11-1.73-5.86l-.44-.68L474.62,62.96h108.86l.08.91ZM610.85,37.05c13.46,0,24.4,10.95,24.4,24.4s-10.95,24.4-24.4,24.4-24.4-10.95-24.4-24.4,10.95-24.4,24.4-24.4Z"/>
          <path class="cls-1" d="M506.13,117.81v-7h2.02c-1.56-5.76-6.79-9.83-12.85-9.83-7.35,0-13.33,5.98-13.33,13.33s5.98,13.33,13.33,13.33c6.07,0,11.29-4.07,12.85-9.83h-2.02ZM495.3,124.64c-5.7,0-10.33-4.63-10.33-10.33s4.63-10.33,10.33-10.33,10.33,4.63,10.33,10.33-4.63,10.33-10.33,10.33Z"/>
          <path class="cls-1" d="M612.78,130.67c-2.12,0-3.84,1.72-3.84,3.84s1.72,3.84,3.84,3.84,3.83-1.72,3.83-3.84-1.72-3.84-3.83-3.84Z"/>
          <path class="cls-1" d="M612.78,154.75c2.11,0,3.83-1.72,3.83-3.83s-1.72-3.84-3.83-3.84-3.84,1.72-3.84,3.84,1.72,3.83,3.84,3.83Z"/>
          <path class="cls-1" d="M342.11-7.68l-.7-.57c-1.92-1.56-4.35-2.43-6.83-2.43-5.97,0-10.83,4.86-10.83,10.83s4.86,10.83,10.83,10.83,10.83-4.86,10.83-10.83c0-1.67-.38-3.28-1.13-4.8l-.32-.64,83.98-83.98h90.22l133.65-133.65.68.44c1.75,1.13,3.78,1.73,5.86,1.73,5.97,0,10.83-4.86,10.83-10.83s-4.86-10.83-10.83-10.83-10.83,4.86-10.83,10.83c0,2.08.6,4.11,1.73,5.86l.44.68-.57.57-132.2,132.2h-90.22L342.11-7.68Z"/>
          <path class="cls-1" d="M583.22,147.07c-2.11,0-3.84,1.72-3.84,3.84s1.72,3.83,3.84,3.83,3.84-1.72,3.84-3.83-1.72-3.84-3.84-3.84Z"/>
          <path class="cls-1" d="M598,147.07c-2.12,0-3.84,1.72-3.84,3.84s1.72,3.83,3.84,3.83,3.84-1.72,3.84-3.83-1.72-3.84-3.84-3.84Z"/>
          <circle class="cls-1" cx="598" cy="134.51" r="3.84"/>
          <path class="cls-1" d="M583.22,171.15c2.11,0,3.84-1.72,3.84-3.83s-1.72-3.84-3.84-3.84-3.84,1.72-3.84,3.84,1.72,3.83,3.84,3.83Z"/>
          <path class="cls-1" d="M598,171.15c2.12,0,3.84-1.72,3.84-3.83s-1.72-3.84-3.84-3.84-3.84,1.72-3.84,3.84,1.72,3.83,3.84,3.83Z"/>
          <path class="cls-1" d="M771.38,108.47c5.97,0,10.83-4.86,10.83-10.83s-4.86-10.83-10.83-10.83-10.83,4.86-10.83,10.83c0,2.08.6,4.11,1.73,5.86l.44.68-68.21,68.21-.68-.44c-1.76-1.13-3.78-1.73-5.86-1.73-5.97,0-10.83,4.86-10.83,10.83s4.86,10.83,10.83,10.83,10.83-4.86,10.83-10.83c0-2.08-.6-4.11-1.73-5.86l-.44-.68,68.21-68.21.68.44c1.76,1.13,3.78,1.73,5.86,1.73Z"/>
          <circle class="cls-1" cx="583.22" cy="134.51" r="3.84"/>
          <path class="cls-1" d="M632.77,115.81l65.07-65.07h77.69c-.05-.51-.08-1.01-.08-1.5s.03-.99.08-1.5h-78.93l-65.07,65.07h-120.98c.05.51.08,1.01.08,1.5s-.03.99-.08,1.5h122.22Z"/>
          <path class="cls-1" d="M614.67-2.48c-5.07,0-9.52,3.59-10.58,8.54l-.17.79h-20.78l-23.95-23.95h-137.59l-.17-.79c-1.07-4.95-5.52-8.54-10.58-8.54-5.97,0-10.83,4.86-10.83,10.83s4.86,10.83,10.83,10.83c5.07,0,9.52-3.59,10.58-8.54l.17-.79h136.35l23.95,23.95h22.03l.17.79c1.07,4.95,5.52,8.54,10.58,8.54,5.97,0,10.83-4.86,10.83-10.83s-4.86-10.83-10.83-10.83Z"/>
          <path class="cls-1" d="M696.61,115.57l.68.44c1.76,1.13,3.78,1.73,5.86,1.73,5.97,0,10.83-4.86,10.83-10.83s-4.86-10.83-10.83-10.83-10.83,4.86-10.83,10.83c0,2.08.6,4.11,1.73,5.86l.44.68-57.29,57.29v28.63h-23.63v50.25h50.25v-50.25h-23.63v-27.39l56.41-56.42ZM660.82,202.37v44.25h-44.25v-44.25h44.25Z"/>
          <path class="cls-1" d="M804.12,49.23c0-7.35-5.98-13.33-13.33-13.33-6.07,0-11.29,4.07-12.85,9.83h3.06v.19c1.38-4.08,5.25-7.02,9.79-7.02,5.7,0,10.33,4.63,10.33,10.33s-4.63,10.33-10.33,10.33c-4.54,0-8.41-2.94-9.79-7.02v.19h-3.06c1.56,5.76,6.79,9.83,12.85,9.83,7.35,0,13.33-5.98,13.33-13.33Z"/>
          <path class="cls-1" d="M447.23,31.01c5.07,0,9.52-3.59,10.58-8.54l.17-.79h83.29l.17.79c1.07,4.95,5.52,8.54,10.58,8.54,5.97,0,10.83-4.86,10.83-10.83s-4.86-10.83-10.83-10.83c-5.07,0-9.52,3.59-10.58,8.54l-.17.79h-83.29l-.17-.79c-1.07-4.95-5.52-8.54-10.58-8.54-5.97,0-10.83,4.86-10.83,10.83s4.86,10.83,10.83,10.83Z"/>
        </g>
        <g>
          <path class="cls-1" d="M222.78,171.15c2.11,0,3.83-1.72,3.83-3.83s-1.72-3.84-3.83-3.84-3.84,1.72-3.84,3.84,1.72,3.83,3.84,3.83Z"/>
          <path class="cls-1" d="M193.56,63.87c1.23,14.01,13.22,24.99,27.29,24.99,15.11,0,27.4-12.29,27.4-27.4,0-6.42-2.28-12.66-6.41-17.58l-.59-.7,111.63-111.63v-152.36l.79-.17c4.95-1.07,8.54-5.52,8.54-10.58,0-5.97-4.86-10.83-10.83-10.83s-10.83,4.86-10.83,10.83c0,5.07,3.59,9.52,8.54,10.58l.79.17V-69.71l-110.76,110.76-.7-.59c-4.93-4.13-11.17-6.41-17.58-6.41-14.08,0-26.06,10.98-27.29,24.99l-.08.91h-110.1L-60.71,204.04l-.68-.44c-1.76-1.13-3.78-1.73-5.86-1.73-5.97,0-10.83,4.86-10.83,10.83s4.86,10.83,10.83,10.83,10.83-4.86,10.83-10.83c0-2.08-.6-4.11-1.73-5.86l-.44-.68L84.62,62.96h108.86l.08.91ZM220.85,37.05c13.46,0,24.4,10.95,24.4,24.4s-10.95,24.4-24.4,24.4-24.4-10.95-24.4-24.4,10.95-24.4,24.4-24.4Z"/>
          <path class="cls-1" d="M116.13,117.81v-7h2.02c-1.56-5.76-6.79-9.83-12.85-9.83-7.35,0-13.33,5.98-13.33,13.33s5.98,13.33,13.33,13.33c6.07,0,11.29-4.07,12.85-9.83h-2.02ZM105.3,124.64c-5.7,0-10.33-4.63-10.33-10.33s4.63-10.33,10.33-10.33,10.33,4.63,10.33,10.33-4.63,10.33-10.33,10.33Z"/>
          <path class="cls-1" d="M222.78,130.67c-2.12,0-3.84,1.72-3.84,3.84s1.72,3.84,3.84,3.84,3.83-1.72,3.83-3.84-1.72-3.84-3.83-3.84Z"/>
          <path class="cls-1" d="M222.78,154.75c2.11,0,3.83-1.72,3.83-3.83s-1.72-3.84-3.83-3.84-3.84,1.72-3.84,3.84,1.72,3.83,3.84,3.83Z"/>
          <path class="cls-1" d="M-47.89-7.68l-.7-.57c-1.92-1.56-4.35-2.43-6.83-2.43-5.97,0-10.83,4.86-10.83,10.83s4.86,10.83,10.83,10.83S-44.58,6.13-44.58.16c0-1.67-.38-3.28-1.13-4.8l-.32-.64L37.94-89.26h90.22l133.65-133.65.68.44c1.75,1.13,3.78,1.73,5.86,1.73,5.97,0,10.83-4.86,10.83-10.83s-4.86-10.83-10.83-10.83-10.83,4.86-10.83,10.83c0,2.08.6,4.11,1.73,5.86l.44.68-.57.57L126.92-92.26H36.7L-47.89-7.68Z"/>
          <path class="cls-1" d="M193.22,147.07c-2.11,0-3.84,1.72-3.84,3.84s1.72,3.83,3.84,3.83,3.84-1.72,3.84-3.83-1.72-3.84-3.84-3.84Z"/>
          <path class="cls-1" d="M208,147.07c-2.12,0-3.84,1.72-3.84,3.84s1.72,3.83,3.84,3.83,3.84-1.72,3.84-3.83-1.72-3.84-3.84-3.84Z"/>
          <circle class="cls-1" cx="208" cy="134.51" r="3.84"/>
          <path class="cls-1" d="M193.22,171.15c2.11,0,3.84-1.72,3.84-3.83s-1.72-3.84-3.84-3.84-3.84,1.72-3.84,3.84,1.72,3.83,3.84,3.83Z"/>
          <path class="cls-1" d="M208,171.15c2.12,0,3.84-1.72,3.84-3.83s-1.72-3.84-3.84-3.84-3.84,1.72-3.84,3.84,1.72,3.83,3.84,3.83Z"/>
          <path class="cls-1" d="M381.38,108.47c5.97,0,10.83-4.86,10.83-10.83s-4.86-10.83-10.83-10.83-10.83,4.86-10.83,10.83c0,2.08.6,4.11,1.73,5.86l.44.68-68.21,68.21-.68-.44c-1.76-1.13-3.78-1.73-5.86-1.73-5.97,0-10.83,4.86-10.83,10.83s4.86,10.83,10.83,10.83,10.83-4.86,10.83-10.83c0-2.08-.6-4.11-1.73-5.86l-.44-.68,68.21-68.21.68.44c1.76,1.13,3.78,1.73,5.86,1.73Z"/>
          <circle class="cls-1" cx="193.22" cy="134.51" r="3.84"/>
          <path class="cls-1" d="M242.77,115.81l65.07-65.07h77.69c-.05-.51-.08-1.01-.08-1.5s.03-.99.08-1.5h-78.93l-65.07,65.07h-120.98c.05.51.08,1.01.08,1.5s-.03.99-.08,1.5h122.22Z"/>
          <path class="cls-1" d="M224.67-2.48c-5.07,0-9.52,3.59-10.58,8.54l-.17.79h-20.78l-23.95-23.95H31.59l-.17-.79c-1.07-4.95-5.52-8.54-10.58-8.54-5.97,0-10.83,4.86-10.83,10.83s4.86,10.83,10.83,10.83c5.07,0,9.52-3.59,10.58-8.54l.17-.79h136.35l23.95,23.95h22.03l.17.79c1.07,4.95,5.52,8.54,10.58,8.54,5.97,0,10.83-4.86,10.83-10.83s-4.86-10.83-10.83-10.83Z"/>
          <path class="cls-1" d="M306.61,115.57l.68.44c1.76,1.13,3.78,1.73,5.86,1.73,5.97,0,10.83-4.86,10.83-10.83s-4.86-10.83-10.83-10.83-10.83,4.86-10.83,10.83c0,2.08.6,4.11,1.73,5.86l.44.68-57.29,57.29v28.63h-23.63v50.25h50.25v-50.25h-23.63v-27.39l56.41-56.42ZM270.82,202.37v44.25h-44.25v-44.25h44.25Z"/>
          <path class="cls-1" d="M414.12,49.23c0-7.35-5.98-13.33-13.33-13.33-6.07,0-11.29,4.07-12.85,9.83h3.06v.19c1.38-4.08,5.25-7.02,9.79-7.02,5.7,0,10.33,4.63,10.33,10.33s-4.63,10.33-10.33,10.33c-4.54,0-8.41-2.94-9.79-7.02v.19h-3.06c1.56,5.76,6.79,9.83,12.85,9.83,7.35,0,13.33-5.98,13.33-13.33Z"/>
          <path class="cls-1" d="M57.23,31.01c5.07,0,9.52-3.59,10.58-8.54l.17-.79h83.29l.17.79c1.07,4.95,5.52,8.54,10.58,8.54,5.97,0,10.83-4.86,10.83-10.83s-4.86-10.83-10.83-10.83c-5.07,0-9.52,3.59-10.58,8.54l-.17.79h-83.29l-.17-.79c-1.07-4.95-5.52-8.54-10.58-8.54-5.97,0-10.83,4.86-10.83,10.83s4.86,10.83,10.83,10.83Z"/>
        </g>
        <g>
          <path class="cls-1" d="M-8.62,108.47c5.97,0,10.83-4.86,10.83-10.83s-4.86-10.83-10.83-10.83-10.83,4.86-10.83,10.83c0,2.08.6,4.11,1.73,5.86l.44.68-68.21,68.21-.68-.44c-1.76-1.13-3.78-1.73-5.86-1.73-5.97,0-10.83,4.86-10.83,10.83s4.86,10.83,10.83,10.83,10.83-4.86,10.83-10.83c0-2.08-.6-4.11-1.73-5.86l-.44-.68L-15.16,106.3l.68.44c1.76,1.13,3.78,1.73,5.86,1.73Z"/>
          <path class="cls-1" d="M24.12,49.23c0-7.35-5.98-13.33-13.33-13.33-6.07,0-11.29,4.07-12.85,9.83H1v.19c1.38-4.08,5.25-7.02,9.79-7.02,5.7,0,10.33,4.63,10.33,10.33s-4.63,10.33-10.33,10.33c-4.54,0-8.41-2.94-9.79-7.02v.19h-3.06c1.56,5.76,6.79,9.83,12.85,9.83,7.35,0,13.33-5.98,13.33-13.33Z"/>
        </g>
      </g>
    </pattern>
  </defs>
  <rect class="cls-2" width="1170" height="780"/>
</svg>